<?xml version="1.0" encoding="utf-8"?>
<!-- Generator: Adobe Illustrator 26.0.3, SVG Export Plug-In . SVG Version: 6.00 Build 0)  -->
<svg version="1.1" id="Layer_1" xmlns="http://www.w3.org/2000/svg" xmlns:xlink="http://www.w3.org/1999/xlink" x="0px" y="0px"
	 viewBox="0 0 1000 1000" style="enable-background:new 0 0 1000 1000;" xml:space="preserve">
<style type="text/css">
	.st0{fill:#01143A;}
</style>
<g>
	<path class="st0" d="M331.3,407.9v21.5h-33.9v12h24.4v20.4h-24.4v32.6h-27.1V408L331.3,407.9L331.3,407.9z"/>
	<path class="st0" d="M366.7,407.4v48.4c0,4,0.9,7.1,2.6,9.4s4.5,3.5,8.4,3.5s6.8-1.1,8.6-3.5s2.8-5.4,2.8-9.4v-48.4H416v48.4
		c0,8.2-1.7,15.1-5.1,20.9s-8,10.1-14,13c-5.9,2.9-12.5,4.4-19.8,4.4s-13.7-1.5-19.4-4.4c-5.6-2.9-10-7.2-13.2-13
		c-3.2-5.7-4.7-12.8-4.7-21v-48.4h26.9V407.4z"/>
	<path class="st0" d="M496.8,407.9v21.5h-22.9v64.9h-27.1v-64.9h-22.7v-21.5H496.8z"/>
	<path class="st0" d="M531.7,407.4v48.4c0,4,0.9,7.1,2.6,9.4s4.6,3.5,8.4,3.5c3.9,0,6.8-1.1,8.6-3.5s2.8-5.4,2.8-9.4v-48.4H581v48.4
		c0,8.2-1.7,15.1-5.1,20.9c-3.4,5.8-8.1,10.1-14,13s-12.5,4.4-19.8,4.4s-13.7-1.5-19.4-4.4c-5.6-2.9-10-7.2-13.2-13
		c-3.2-5.7-4.7-12.8-4.7-21v-48.4h26.9V407.4z"/>
	<path class="st0" d="M634,494.2l-16.4-31.1v31.1h-27.2v-86.8h40.5c7,0,13,1.2,18,3.7s8.7,5.9,11.2,10.2c2.5,4.3,3.7,9.1,3.7,14.5
		c0,5.8-1.6,11-4.8,15.4c-3.2,4.5-7.9,7.7-13.9,9.7l18.9,33.2L634,494.2L634,494.2z M617.5,444.9h10.8c2.6,0,4.6-0.6,5.9-1.8
		c1.3-1.2,2-3,2-5.6c0-2.3-0.7-4.1-2-5.4s-3.3-2-5.8-2h-10.8v14.8H617.5z"/>
	<path class="st0" d="M699.2,429.3V440H726v20.4h-26.8v12.2h30.5v21.6h-57.6v-86.4h57.6v21.5L699.2,429.3L699.2,429.3z"/>
	<path class="st0" d="M323.9,554.1c3.4,4,5.1,8.7,5.1,14.1c0,7-2.4,12.7-7.2,17s-11.7,6.5-20.8,6.5h-30.4v-87.4h30
		c8.8,0,15.3,2,19.8,5.9c4.4,3.9,6.6,9.2,6.6,15.8c0,5.7-1.5,10.3-4.6,13.7s-7,5.7-11.8,6.7C316.1,547.6,320.5,550.1,323.9,554.1z
		 M279.4,543.4h20.1c6.1,0,10.8-1.4,13.9-4.3c3.2-2.8,4.8-6.8,4.8-11.7s-1.6-8.7-4.7-11.5s-8-4.2-14.5-4.2h-19.6L279.4,543.4
		L279.4,543.4z M314.7,579.8c3.6-3,5.5-7.2,5.5-12.6c0-5.3-1.9-9.5-5.6-12.6s-8.8-4.6-15.4-4.6h-19.8v34.3h20.1
		C306,584.3,311,582.8,314.7,579.8z"/>
	<path class="st0" d="M402.3,591.8l-23.9-36.4h-14.1v36.4h-8.8v-87.4h26.8c9.8,0,17.2,2.3,22,6.9c4.8,4.6,7.2,10.9,7.2,18.7
		c0,7.3-2,13.1-6.1,17.3c-4.1,4.3-10,6.9-17.8,7.7l24.7,36.7L402.3,591.8L402.3,591.8z M364.3,548.7h17.3c14,0,21.1-6.1,21.1-18.2
		c0-12.4-7-18.6-21.1-18.6h-17.3V548.7z"/>
	<path class="st0" d="M451.7,504.4v87.4h-8.8v-87.4H451.7z"/>
	<path class="st0" d="M553.6,571.4c-3.6,6.6-8.8,11.6-15.7,15.1s-15.2,5.3-25,5.3h-26.4v-87.4H513c14.7,0,26,3.9,34,11.6
		s12,18.4,12,32C558.9,557,557.1,564.8,553.6,571.4z M540.5,574.5c6.4-6.3,9.7-15.1,9.7-26.5c0-11.3-3.2-20.1-9.7-26.5
		s-15.8-9.5-28.1-9.5h-17v72h17C524.6,584,534,580.8,540.5,574.5z"/>
	<path class="st0" d="M644.2,511c6.9,5,11.6,11.7,14.1,20.2h-9c-2.2-5.9-6-10.6-11.3-14.3s-11.6-5.5-18.9-5.5c-6.3,0-12,1.5-17,4.5
		s-9.1,7.2-12,12.8c-2.9,5.5-4.3,12-4.3,19.3c0,7.5,1.5,14,4.4,19.6c2.9,5.5,7,9.8,12.1,12.8s11,4.5,17.7,4.5
		c5.9,0,11.2-1.3,16.1-3.9c4.9-2.6,8.8-6.4,11.8-11.3c3-5,4.8-10.8,5.3-17.5h-36.3v-6.6h43.9v7.7c-0.6,7.4-2.7,14.1-6.3,20.1
		c-3.6,5.9-8.4,10.6-14.5,14.1c-6.1,3.4-13,5.1-20.8,5.1c-8.3,0-15.6-1.9-22.1-5.6s-11.4-9-15-15.8s-5.3-14.5-5.3-23.1
		s1.8-16.3,5.3-23.1c3.6-6.8,8.5-12,14.9-15.8s13.7-5.6,22-5.6C629,503.6,637.4,506.1,644.2,511z"/>
	<path class="st0" d="M691.6,511.4v33h34.1v6.8h-34.1v33.3h37.8v7.2h-46.6v-87.4h46.6v7.1L691.6,511.4L691.6,511.4z"/>
</g>
</svg>
