<svg xmlns="http://www.w3.org/2000/svg" xmlns:xlink="http://www.w3.org/1999/xlink" id="Layer_1" x="0px" y="0px" viewBox="0 0 1080 1080" style="enable-background:new 0 0 1080 1080;" xml:space="preserve"><style type="text/css">	.st0{fill:none;stroke:#FCB23F;stroke-miterlimit:10;}	.st1{fill:#FFFFFF;}	.st2{fill:none;}</style><g>	<path class="st0" d="M-393,522l-9.8,43h-16.8l-5-24.4l-5,24.4h-16.8l-9.8-43h14.5l3.9,27.1l5.8-27.1h14.7l5.8,27.1l3.9-27.1H-393z"></path>	<path class="st0" d="M-374.7,532.6v5.3h13.4V548h-13.4v6.1h15.2v10.7h-28.7v-43h28.7v10.7h-15.2V532.6z"></path>	<path class="st0" d="M-330.6,551.3V565h-13.5v-43h18.8c5.3,0,9.3,1.3,12.1,4c2.8,2.7,4.2,6.3,4.2,10.7c0,2.7-0.6,5.2-1.9,7.4  s-3.1,4-5.6,5.3c-2.4,1.3-5.4,1.9-8.9,1.9L-330.6,551.3L-330.6,551.3z M-322.6,536.7c0-2.6-1.4-3.9-4.2-3.9h-3.8v7.9h3.8  C-324,540.7-322.6,539.3-322.6,536.7z"></path>	<path class="st0" d="M-283,564.9l-8.1-15.4v15.4h-13.5v-43h20c3.5,0,6.5,0.6,8.9,1.9c2.5,1.2,4.3,2.9,5.6,5  c1.2,2.1,1.9,4.5,1.9,7.2c0,2.9-0.8,5.4-2.4,7.7c-1.6,2.2-3.9,3.8-6.9,4.8l9.4,16.5H-283V564.9z M-291.2,540.5h5.3  c1.3,0,2.3-0.3,2.9-0.9c0.6-0.6,1-1.5,1-2.8c0-1.1-0.3-2-1-2.7c-0.7-0.6-1.6-1-2.9-1h-5.3V540.5z"></path>	<path class="st0" d="M-231.9,524c3.4,1.9,6,4.5,8,7.9s2.9,7.1,2.9,11.4c0,4.2-1,8-2.9,11.4c-2,3.4-4.6,6-8,7.9s-7.1,2.9-11.1,2.9  s-7.8-1-11.1-2.9c-3.4-1.9-6.1-4.5-8-7.9c-2-3.4-3-7.1-3-11.4c0-4.2,1-8,3-11.4s4.7-6,8-7.9c3.4-1.9,7.1-2.8,11.1-2.8  S-235.3,522.2-231.9,524z M-249.3,536.2c-1.5,1.7-2.2,4.1-2.2,7s0.7,5.2,2.2,7c1.5,1.7,3.5,2.6,6.3,2.6c2.7,0,4.7-0.9,6.2-2.6  c1.5-1.7,2.2-4,2.2-7s-0.7-5.3-2.2-7s-3.5-2.6-6.2-2.6C-245.7,533.7-247.8,534.5-249.3,536.2z"></path>	<path class="st0" d="M-204.8,522l8.9,29.6l8.8-29.6h14.3l-14.5,43h-17.4l-14.5-43H-204.8z"></path>	<path class="st0" d="M-156.3,522v43h-13.5v-43H-156.3z"></path>	<path class="st0" d="M-112.7,554.4c-1.8,3.3-4.4,5.9-7.8,7.7c-3.4,1.9-7.3,2.8-11.8,2.8h-17.9v-43h17.9c4.5,0,8.4,0.9,11.8,2.7  s6,4.4,7.8,7.6c1.8,3.2,2.7,6.9,2.7,11.1C-110,547.4-110.9,551.1-112.7,554.4z M-126.3,550.4c1.8-1.7,2.7-4,2.7-7.1  s-0.9-5.4-2.7-7.1c-1.8-1.7-4.2-2.5-7.2-2.5h-3.2v19.2h3.2C-130.5,552.9-128.1,552.1-126.3,550.4z"></path>	<path class="st0" d="M-91.7,532.6v5.3h13.4V548h-13.4v6.1h15.2v10.7h-28.7v-43h28.7v10.7h-15.2V532.6z"></path>	<path class="st0" d="M-422.4,577.1c3.2,1.5,5.8,3.6,7.7,6.4c2,2.8,3.3,6,4,9.6H-426c-0.7-1.5-1.7-2.7-3-3.6  c-1.3-0.9-2.8-1.3-4.4-1.3c-2.5,0-4.4,0.9-5.8,2.8c-1.4,1.8-2.1,4.3-2.1,7.4c0,3.1,0.7,5.6,2.1,7.4c1.4,1.8,3.4,2.8,5.8,2.8  c1.7,0,3.1-0.4,4.4-1.3c1.3-0.9,2.3-2,3-3.6h15.4c-0.7,3.7-2,6.9-4,9.6c-2,2.8-4.6,4.9-7.7,6.4c-3.2,1.5-6.8,2.3-10.8,2.3  c-4.7,0-8.8-1-12.2-3c-3.5-2-6.1-4.8-8-8.4c-1.9-3.6-2.8-7.7-2.8-12.3s0.9-8.7,2.8-12.3s4.5-6.4,8-8.4s7.5-3,12.2-3  C-429.2,574.8-425.6,575.6-422.4,577.1z"></path>	<path class="st0" d="M-390.9,586.8v5.8h14.4v11h-14.4v6.6h16.4v11.6h-31v-46.5h31v11.6L-390.9,586.8L-390.9,586.8z"></path>	<path class="st0" d="M-345.6,621.8l-8.8-16.7v16.7H-369v-46.5h21.7c3.8,0,7,0.7,9.6,2c2.7,1.3,4.7,3.2,6,5.4c1.3,2.3,2,4.9,2,7.8  c0,3.1-0.9,5.9-2.6,8.3c-1.7,2.4-4.2,4.1-7.4,5.2l10.1,17.8H-345.6z M-354.4,595.4h5.8c1.4,0,2.5-0.3,3.2-1c0.7-0.6,1-1.6,1-3  c0-1.2-0.4-2.2-1.1-2.9s-1.8-1.1-3.1-1.1h-5.8V595.4z"></path>	<path class="st0" d="M-288.5,575.3v11.6h-12.3v34.9h-14.6v-34.9h-12.2v-11.6H-288.5z"></path>	<path class="st0" d="M-254.7,614.7h-15.5l-2.3,7h-15.3l17-46.5h16.8l16.9,46.5h-15.4L-254.7,614.7z M-258.3,603.8l-4.2-12.9  l-4.2,12.9H-258.3z"></path>	<path class="st0" d="M-219.2,575.3v46.5h-14.6v-46.5H-219.2z"></path>	<path class="st0" d="M-168.1,621.8h-14.6l-15.4-23.4v23.4h-14.6v-46.5h14.6l15.4,23.8v-23.8h14.6V621.8z"></path>	<path class="st0" d="M-125.1,575.3v11.6h-12.3v34.9H-152v-34.9h-12.2v-11.6H-125.1z"></path>	<path class="st0" d="M-76.5,575.3l-16.7,32.4v14.1h-14.6v-14.1l-16.7-32.4h16.7l7.4,16.5l7.4-16.5H-76.5z"></path></g><g>	<g>		<path class="st1" d="M246.6,529.8h-36.5l-9.3-45.8l-9.3,45.8H155l-21-91.1h32.5l7.3,50.5l10.9-50.5h32.2l10.9,50.5l7.3-50.5h32.5   L246.6,529.8z M212,527.4h32.8l19.8-86.5H237l-7.9,55l-2.3,0.1L215,440.9h-28.5l-11.8,55l-2.3-0.1l-7.9-55H137l19.8,86.5h32.8   l10.1-49.5h2.3L212,527.4z"></path>	</g>	<g>		<path class="st1" d="M338.6,529.8H277v-91.2h61.6v24.5h-31.4v8.6h27.6V495h-27.6v10.2h31.4V529.8z M279.3,527.5h56.9v-19.9h-31.4   v-14.9h27.6v-18.6h-27.6v-13.2h31.4V441h-56.9V527.5z"></path>	</g>	<g>		<path class="st1" d="M408,529.8h-30.2v-91.2h40.1c11.1,0,19.8,2.9,25.8,8.6s9.1,13.5,9.1,23.1c0,5.8-1.4,11.1-4,15.8l0,0   c-2.7,4.7-6.7,8.5-11.9,11.3c-5.2,2.8-11.6,4.1-18.9,4.1h-10V529.8z M380.1,527.5h25.5v-28.2h12.2c7,0,13-1.3,17.8-3.9   s8.5-6.1,11-10.4l0,0c2.5-4.4,3.7-9.3,3.7-14.7c0-8.9-2.8-16.1-8.4-21.4s-13.7-8-24.2-8H380v86.6H380.1z M414.7,479.6h-9.1V461   h9.1c6.4,0,9.8,3.2,9.8,9.3C424.5,476.4,421.2,479.6,414.7,479.6z M408,477.3h6.7c5.1,0,7.5-2.2,7.5-7s-2.4-7-7.5-7H408V477.3z"></path>	</g>	<g>		<path class="st1" d="M539.8,529.8h-33.3l-14.9-28.6v28.6h-30.2v-91.2H504c7.3,0,13.7,1.3,19,4c5.3,2.6,9.3,6.3,12,10.9   c2.6,4.6,4,9.7,4,15.5c0,6.2-1.7,11.7-5.2,16.5c-3.2,4.4-7.7,7.8-13.5,9.9L539.8,529.8z M507.9,527.5h27.9l-19-33.5l1.4-0.4   c5.9-1.9,10.5-5.1,13.7-9.5c3.1-4.4,4.7-9.5,4.7-15.1c0-5.3-1.2-10.1-3.7-14.3c-2.4-4.2-6.1-7.5-11-10s-11-3.7-17.9-3.7h-40.2   v86.5h25.5v-31.9h1.9l0.5,0.6L507.9,527.5z M501.4,479.4h-12.2V462h12.2c2.9,0,5.2,0.8,6.8,2.3c1.6,1.6,2.4,3.7,2.4,6.4   c0,2.9-0.8,5.1-2.4,6.6C506.7,478.7,504.4,479.4,501.4,479.4z M491.6,477.1h9.9c2.4,0,4.1-0.5,5.2-1.5s1.6-2.6,1.6-4.8   c0-2-0.6-3.6-1.7-4.7c-1.2-1.1-2.9-1.7-5.2-1.7h-9.9v12.7H491.6z"></path>	</g>	<g>		<path class="st1" d="M595.6,531c-8.5,0-16.5-2-23.6-6l0,0c-7.1-4-12.9-9.6-17.1-16.7c-4.2-7.1-6.3-15.2-6.3-24.1s2.1-17,6.3-24.1   c4.2-7.1,9.9-12.7,17.1-16.7c7.1-4,15.1-6,23.6-6s16.4,2,23.5,6s12.8,9.6,16.9,16.7c4.1,7.1,6.2,15.2,6.2,24.1s-2.1,17-6.2,24.1   c-4.1,7.1-9.9,12.7-17,16.7C612,529,604.1,531,595.6,531z M595.6,439.8c-8.1,0-15.7,1.9-22.5,5.7c-6.8,3.8-12.2,9.1-16.2,15.8   c-4,6.7-6,14.4-6,22.9s2,16.1,6,22.9c4,6.7,9.4,12.1,16.2,15.9l0,0c6.8,3.8,14.3,5.7,22.5,5.7c8,0,15.6-1.9,22.3-5.7   c6.8-3.8,12.2-9.2,16.1-15.9c3.9-6.7,5.9-14.4,5.9-22.9c0-8.4-2-16.1-5.9-22.9c-3.9-6.7-9.3-12.1-16.1-15.8   C611.3,441.7,603.8,439.8,595.6,439.8z M595.6,505c-5.9,0-10.6-1.9-13.8-5.7c-3.2-3.8-4.8-8.8-4.8-15.1c0-6.4,1.6-11.5,4.8-15.2   c3.2-3.8,7.9-5.7,13.8-5.7s10.5,1.9,13.7,5.7c3.2,3.8,4.8,8.9,4.8,15.2c0,6.3-1.6,11.4-4.8,15.1C606.1,503.1,601.5,505,595.6,505z    M595.6,465.5c-5.3,0-9.2,1.6-12,4.9c-2.8,3.3-4.2,7.9-4.2,13.7c0,5.7,1.4,10.3,4.2,13.6c2.8,3.3,6.7,4.9,12,4.9   c5.2,0,9.1-1.6,11.9-4.9c2.8-3.3,4.2-7.9,4.2-13.6c0-5.8-1.4-10.4-4.2-13.7C604.8,467.1,600.9,465.5,595.6,465.5z"></path>	</g>	<g>		<path class="st1" d="M710.2,529.8h-37.7l-30.6-91.2H674l17.5,58.2l17.3-58.2h32.1L710.2,529.8z M674.2,527.5h34.3l29.1-86.5h-27.1   l-19.1,64l-19.2-64h-27.1L674.2,527.5z"></path>	</g>	<g>		<path class="st1" d="M779.4,529.8h-30.2v-91.2h30.2V529.8z M751.5,527.5H777V441h-25.5V527.5z"></path>	</g>	<g>		<path class="st1" d="M829.5,529.8h-38.2v-91.2h38.2c9.4,0,17.8,1.9,25,5.8s12.7,9.3,16.6,16.1c3.8,6.8,5.8,14.7,5.8,23.4   c0,8.6-1.9,16.5-5.8,23.4c-3.9,6.9-9.4,12.5-16.6,16.5C847.4,527.8,839,529.8,829.5,529.8z M793.7,527.5h35.9   c9,0,17.1-1.9,23.8-5.7c6.8-3.8,12-9,15.7-15.6s5.5-14.1,5.5-22.3c0-8.3-1.8-15.8-5.5-22.3c-3.6-6.5-8.9-11.6-15.7-15.2   c-6.8-3.7-14.8-5.5-23.9-5.5h-35.9v86.6H793.7z M827,505h-7.8v-42h7.8c6.5,0,11.8,1.8,15.7,5.5c3.9,3.6,5.9,8.9,5.9,15.5   c0,6.7-2,11.9-5.9,15.5l0,0C838.8,503.1,833.5,505,827,505z M821.5,502.7h5.5c5.9,0,10.7-1.6,14.1-4.8l0,0   c3.4-3.2,5.2-7.8,5.2-13.8s-1.7-10.6-5.2-13.8c-3.4-3.2-8.2-4.8-14.1-4.8h-5.5V502.7z"></path>	</g>	<g>		<path class="st1" d="M946,529.8h-61.6v-91.2H946v24.5h-31.4v8.6h27.6V495h-27.6v10.2H946V529.8z M886.7,527.5h56.9v-19.9h-31.4   v-14.9h27.6v-18.6h-27.6v-13.2h31.4V441h-56.9V527.5z"></path>	</g>	<g>		<path class="st1" d="M183.2,643.1c-9.9,0-18.6-2.1-25.9-6.4c-7.3-4.2-13.1-10.2-17-17.9c-3.9-7.6-5.9-16.3-5.9-26s2-18.5,5.9-26   l0,0c3.9-7.6,9.7-13.6,17-17.9c7.3-4.2,16.1-6.4,25.9-6.4c8.5,0,16.2,1.6,22.9,4.8s12.3,7.8,16.5,13.7s7.1,12.8,8.5,20.5l0.2,1.4   h-34l-0.3-0.7c-1.4-3-3.3-5.3-5.8-6.9c-2.5-1.6-5.4-2.5-8.6-2.5c-4.8,0-8.4,1.7-11.1,5.3c-2.8,3.6-4.2,8.5-4.2,14.7   s1.4,11.1,4.2,14.7c2.7,3.5,6.4,5.3,11.1,5.3c3.2,0,6.1-0.8,8.6-2.5c2.5-1.6,4.4-4,5.8-6.9l0.3-0.7h34l-0.2,1.4   c-1.4,7.8-4.2,14.7-8.5,20.5c-4.2,5.9-9.8,10.5-16.5,13.7C199.4,641.4,191.7,643.1,183.2,643.1z M183.2,544.9   c-9.5,0-17.8,2-24.8,6.1c-7,4-12.4,9.7-16.1,16.9l0,0c-3.8,7.2-5.7,15.6-5.7,25c0,9.3,1.9,17.7,5.7,25c3.7,7.2,9.2,12.9,16.1,16.9   c7,4,15.3,6,24.8,6c8.2,0,15.5-1.5,21.9-4.6c6.4-3,11.6-7.4,15.6-12.9c3.8-5.2,6.4-11.3,7.8-18.2h-29.8c-1.5,3-3.6,5.5-6.3,7.2   c-2.9,1.9-6.2,2.9-9.8,2.9c-5.4,0-9.8-2.1-13-6.2c-3.1-4-4.7-9.4-4.7-16.1s1.6-12.1,4.7-16.1c3.2-4.1,7.5-6.2,13-6.2   c3.7,0,7,1,9.8,2.9c2.7,1.8,4.8,4.2,6.3,7.2h29.8c-1.4-6.9-4-13-7.8-18.2c-4-5.5-9.3-9.9-15.6-12.9   C198.8,546.4,191.4,544.9,183.2,544.9z"></path>	</g>	<g>		<path class="st1" d="M308.8,642.2h-66.7v-98.9h66.7v26.5h-34.1v9.5h30v25.1h-30v11.3h34.1V642.2z M244.4,639.8h62V618h-34.1v-16   h30v-20.4h-30v-14.2h34.1v-21.8h-62V639.8z"></path>	</g>	<g>		<path class="st1" d="M407.7,642.2h-36l-16.4-31.3v31.3h-32.6v-98.9h46.2c8,0,14.9,1.4,20.6,4.3c5.7,2.9,10.1,6.8,13,11.8   c2.9,4.9,4.3,10.6,4.3,16.7c0,6.7-1.9,12.7-5.6,17.9c-3.5,4.8-8.4,8.5-14.7,10.7L407.7,642.2z M373.1,639.8h30.6L383,603.3   l1.4-0.4c6.5-2.1,11.5-5.6,14.9-10.3c3.4-4.8,5.2-10.3,5.2-16.5c0-5.8-1.3-11-4-15.6c-2.6-4.6-6.7-8.2-12-10.9   c-5.4-2.7-11.9-4-19.5-4h-43.8v94.2h27.9v-34.6h1.9l0.5,0.6L373.1,639.8z M366.1,587.4h-13.2v-18.7h13.2c3.1,0,5.6,0.8,7.3,2.5   c1.7,1.7,2.6,4,2.6,6.8c0,3.1-0.9,5.5-2.6,7.1C371.8,586.6,369.3,587.4,366.1,587.4z M355.3,585h10.8c2.6,0,4.5-0.6,5.8-1.7   c1.2-1.1,1.8-2.9,1.8-5.3c0-2.2-0.6-3.9-1.9-5.2c-1.3-1.2-3.2-1.9-5.7-1.9h-10.8L355.3,585L355.3,585z"></path>	</g>	<g>		<path class="st1" d="M471,642.2h-32.6v-72.5H413v-26.3h83.6v26.3H471V642.2z M440.7,639.8h27.9v-72.5h25.6v-21.7h-78.9v21.7h25.4   V639.8z"></path>	</g>	<g>		<path class="st1" d="M597.4,642.2H563l-4.8-14.6h-30.5l-4.8,14.6h-34.3l36.2-98.9h36.5L597.4,642.2z M564.7,639.8h29.4l-34.3-94.2   h-33.3L492,639.8h29.3l4.8-14.6H560L564.7,639.8z M553.3,604.8h-20.7l10.3-31.8L553.3,604.8z M535.8,602.5h14.3l-7.1-21.9   L535.8,602.5z"></path>	</g>	<g>		<path class="st1" d="M640.5,642.2h-32.6v-98.9h32.6V642.2z M610.2,639.8h27.9v-94.2h-27.9V639.8z"></path>	</g>	<g>		<path class="st1" d="M749.1,642.2H717l-0.3-0.5l-29.9-45.3v45.8h-32.6v-98.9h32.1l30.3,46.6v-46.6h32.6L749.1,642.2L749.1,642.2z    M718.2,639.8h28.5v-94.2h-28v52.1l-33.8-52.1h-28.5v94.2h27.9v-51.3L718.2,639.8z"></path>	</g>	<g>		<path class="st1" d="M812.8,642.2h-32.6v-72.5h-25.4v-26.3h83.6v26.3h-25.6V642.2z M782.5,639.8h27.9v-72.5H836v-21.7h-78.9v21.7   h25.4V639.8z"></path>	</g>	<g>		<path class="st1" d="M909.4,642.2h-32.6V612l-35.4-68.7h37.3l14.7,32.6l14.7-32.6h36.7L909.4,612V642.2z M879.1,639.8H907v-28.4   l0.1-0.2l33.8-65.5h-31.4l-16.2,35.9l-16.2-35.9h-32l33.9,65.8v28.3H879.1z"></path>	</g></g><rect x="-590" y="627" class="st2" width="351.7" height="378.2"></rect><text transform="matrix(1 0 0 1 -590.0028 666.9575)" style="font-family:'Poppins-Black'; font-size:54px;">WE</text><text transform="matrix(1 0 0 1 -498.7028 666.9575)" style="font-family:'Poppins-Black'; font-size:54px; letter-spacing:2;"> </text><text transform="matrix(1 0 0 1 -486.3028 666.9575)" style="font-family:'Poppins-Black'; font-size:54px;">PROVIDE </text><text transform="matrix(1 0 0 1 -590.0028 711.9575)" style="font-family:'Poppins-Black'; font-size:54px; letter-spacing:3;">CERTAINT</text><text transform="matrix(1 0 0 1 -277.7028 711.9575)" style="font-family:'Poppins-Black'; font-size:54px;">Y</text></svg>